<mxfile host="65bd71144e">
    <diagram id="cpQDuuSaUFJ5k6XHxkUT" name="第 1 页">
        <mxGraphModel dx="1851" dy="691" grid="1" gridSize="10" guides="1" tooltips="1" connect="1" arrows="1" fold="1" page="1" pageScale="1" pageWidth="827" pageHeight="1169" background="none" math="0" shadow="0">
            <root>
                <mxCell id="0"/>
                <mxCell id="1" parent="0"/>
                <mxCell id="5" value="" style="edgeStyle=none;html=1;fontColor=#F0227B;" edge="1" parent="1" source="2" target="4">
                    <mxGeometry relative="1" as="geometry"/>
                </mxCell>
                <mxCell id="2" value="new vue()" style="rounded=1;whiteSpace=wrap;html=1;" vertex="1" parent="1">
                    <mxGeometry x="310" y="30" width="120" height="60" as="geometry"/>
                </mxCell>
                <mxCell id="3" value="创建一个Vue实例对象" style="text;html=1;resizable=0;autosize=1;align=center;verticalAlign=middle;points=[];rounded=0;fontStyle=1;fontColor=#F0227B;" vertex="1" parent="1">
                    <mxGeometry x="450" y="50" width="130" height="20" as="geometry"/>
                </mxCell>
                <mxCell id="10" value="" style="edgeStyle=none;html=1;fontColor=#F0227B;" edge="1" parent="1" source="4" target="9">
                    <mxGeometry relative="1" as="geometry"/>
                </mxCell>
                <mxCell id="4" value="init&lt;br&gt;events &amp;amp; Lifecycle" style="whiteSpace=wrap;html=1;rounded=1;" vertex="1" parent="1">
                    <mxGeometry x="310" y="130" width="120" height="100" as="geometry"/>
                </mxCell>
                <mxCell id="6" value="刚刚创建了一个只有&lt;br&gt;一些默认生命周期&lt;br&gt;和默认时间的Vue实例" style="text;html=1;resizable=0;autosize=1;align=center;verticalAlign=middle;points=[];fillColor=none;strokeColor=none;rounded=0;fontColor=#F0227B;" vertex="1" parent="1">
                    <mxGeometry x="450" y="150" width="130" height="50" as="geometry"/>
                </mxCell>
                <mxCell id="7" value="" style="endArrow=classic;html=1;fontColor=#F0227B;fillColor=#e51400;strokeColor=#B20000;" edge="1" parent="1">
                    <mxGeometry width="50" height="50" relative="1" as="geometry">
                        <mxPoint x="370" y="260" as="sourcePoint"/>
                        <mxPoint x="280" y="260" as="targetPoint"/>
                        <Array as="points">
                            <mxPoint x="280" y="260"/>
                        </Array>
                    </mxGeometry>
                </mxCell>
                <mxCell id="8" value="beforeCreate&lt;br&gt;&lt;br&gt;beforeCreate函数钩子执行的时候，&lt;br&gt;data和method中的数据和方法&lt;br&gt;都还没有初始化" style="rounded=0;whiteSpace=wrap;html=1;fontColor=#F0227B;" vertex="1" parent="1">
                    <mxGeometry x="50" y="200" width="230" height="80" as="geometry"/>
                </mxCell>
                <mxCell id="12" value="" style="edgeStyle=none;html=1;fontColor=#F0227B;" edge="1" parent="1" source="9" target="11">
                    <mxGeometry relative="1" as="geometry"/>
                </mxCell>
                <mxCell id="9" value="inti&lt;br&gt;injections &amp;amp; reactivity" style="whiteSpace=wrap;html=1;rounded=1;" vertex="1" parent="1">
                    <mxGeometry x="310" y="300" width="120" height="90" as="geometry"/>
                </mxCell>
                <mxCell id="20" value="" style="edgeStyle=none;html=1;fontColor=#F0227B;" edge="1" parent="1" source="11" target="19">
                    <mxGeometry relative="1" as="geometry"/>
                </mxCell>
                <mxCell id="11" value="Has&lt;br&gt;&quot;el&quot; option?" style="rhombus;whiteSpace=wrap;html=1;rounded=1;" vertex="1" parent="1">
                    <mxGeometry x="310" y="475" width="120" height="80" as="geometry"/>
                </mxCell>
                <mxCell id="13" value="" style="endArrow=classic;html=1;fontColor=#F0227B;fillColor=#e51400;strokeColor=#B20000;" edge="1" parent="1" target="14">
                    <mxGeometry width="50" height="50" relative="1" as="geometry">
                        <mxPoint x="370" y="430" as="sourcePoint"/>
                        <mxPoint x="280" y="430" as="targetPoint"/>
                        <Array as="points">
                            <mxPoint x="320" y="430"/>
                            <mxPoint x="280" y="430"/>
                        </Array>
                    </mxGeometry>
                </mxCell>
                <mxCell id="14" value="created&lt;br&gt;在created中，data和methods都已经被初始化好了&lt;br&gt;也就是说如果想要最早使用data和method方法；不能早于created钩子" style="rounded=0;whiteSpace=wrap;html=1;fontColor=#F0227B;" vertex="1" parent="1">
                    <mxGeometry x="50" y="360" width="230" height="100" as="geometry"/>
                </mxCell>
                <mxCell id="15" value="" style="endArrow=classic;html=1;fontColor=#F0227B;" edge="1" parent="1" source="11">
                    <mxGeometry width="50" height="50" relative="1" as="geometry">
                        <mxPoint x="440" y="530" as="sourcePoint"/>
                        <mxPoint x="560" y="560" as="targetPoint"/>
                        <Array as="points">
                            <mxPoint x="560" y="515"/>
                        </Array>
                    </mxGeometry>
                </mxCell>
                <mxCell id="16" value="No" style="text;html=1;align=center;verticalAlign=middle;resizable=0;points=[];autosize=1;strokeColor=none;fillColor=none;fontColor=#F0227B;" vertex="1" parent="1">
                    <mxGeometry x="470" y="500" width="30" height="20" as="geometry"/>
                </mxCell>
                <mxCell id="17" value="when vm.$mounted(el)&lt;br&gt;is called" style="text;html=1;align=center;verticalAlign=middle;resizable=0;points=[];autosize=1;strokeColor=none;fillColor=none;fontColor=#F0227B;" vertex="1" parent="1">
                    <mxGeometry x="490" y="570" width="140" height="30" as="geometry"/>
                </mxCell>
                <mxCell id="18" value="" style="endArrow=classic;html=1;fontColor=#F0227B;" edge="1" parent="1">
                    <mxGeometry width="50" height="50" relative="1" as="geometry">
                        <mxPoint x="560" y="600" as="sourcePoint"/>
                        <mxPoint x="430" y="680" as="targetPoint"/>
                        <Array as="points">
                            <mxPoint x="560" y="680"/>
                        </Array>
                    </mxGeometry>
                </mxCell>
                <mxCell id="19" value="Has&lt;br&gt;&quot;template&quot; option?" style="rhombus;whiteSpace=wrap;html=1;rounded=1;" vertex="1" parent="1">
                    <mxGeometry x="310" y="635" width="120" height="95" as="geometry"/>
                </mxCell>
                <mxCell id="21" value="" style="endArrow=classic;startArrow=classic;html=1;fontColor=#F0227B;" edge="1" parent="1">
                    <mxGeometry width="50" height="50" relative="1" as="geometry">
                        <mxPoint x="190" y="800" as="sourcePoint"/>
                        <mxPoint x="550" y="800" as="targetPoint"/>
                        <Array as="points">
                            <mxPoint x="190" y="760"/>
                            <mxPoint x="340" y="760"/>
                            <mxPoint x="470" y="760"/>
                            <mxPoint x="550" y="760"/>
                        </Array>
                    </mxGeometry>
                </mxCell>
                <mxCell id="22" value="" style="endArrow=classic;html=1;fontColor=#F0227B;exitX=0.5;exitY=1;exitDx=0;exitDy=0;" edge="1" parent="1" source="19">
                    <mxGeometry width="50" height="50" relative="1" as="geometry">
                        <mxPoint x="400" y="740" as="sourcePoint"/>
                        <mxPoint x="370" y="760" as="targetPoint"/>
                    </mxGeometry>
                </mxCell>
                <mxCell id="23" value="No" style="text;html=1;align=center;verticalAlign=middle;resizable=0;points=[];autosize=1;strokeColor=none;fillColor=none;fontColor=#F0227B;" vertex="1" parent="1">
                    <mxGeometry x="460" y="740" width="30" height="20" as="geometry"/>
                </mxCell>
                <mxCell id="24" value="yes" style="text;html=1;align=center;verticalAlign=middle;resizable=0;points=[];autosize=1;strokeColor=none;fillColor=none;fontColor=#F0227B;" vertex="1" parent="1">
                    <mxGeometry x="235" y="740" width="30" height="20" as="geometry"/>
                </mxCell>
                <mxCell id="27" value="compile templaate into&amp;nbsp;&lt;br&gt;render function *" style="rounded=1;whiteSpace=wrap;html=1;" vertex="1" parent="1">
                    <mxGeometry x="70" y="800" width="230" height="120" as="geometry"/>
                </mxCell>
                <mxCell id="28" value="compile el's&lt;br&gt;outerHTML&lt;br&gt;as template *" style="rounded=1;whiteSpace=wrap;html=1;" vertex="1" parent="1">
                    <mxGeometry x="430" y="800" width="230" height="120" as="geometry"/>
                </mxCell>
                <mxCell id="29" value="" style="edgeStyle=segmentEdgeStyle;endArrow=classic;html=1;fontColor=#FFFFFF;exitX=0.446;exitY=1.013;exitDx=0;exitDy=0;exitPerimeter=0;" edge="1" parent="1" source="27">
                    <mxGeometry width="50" height="50" relative="1" as="geometry">
                        <mxPoint x="170" y="960" as="sourcePoint"/>
                        <mxPoint x="370" y="1110" as="targetPoint"/>
                        <Array as="points">
                            <mxPoint x="173" y="960"/>
                            <mxPoint x="370" y="960"/>
                        </Array>
                    </mxGeometry>
                </mxCell>
                <mxCell id="31" value="" style="endArrow=none;html=1;fontColor=#FFFFFF;entryX=0.573;entryY=1.022;entryDx=0;entryDy=0;entryPerimeter=0;" edge="1" parent="1" target="28">
                    <mxGeometry width="50" height="50" relative="1" as="geometry">
                        <mxPoint x="360" y="960" as="sourcePoint"/>
                        <mxPoint x="560" y="950" as="targetPoint"/>
                        <Array as="points">
                            <mxPoint x="562" y="960"/>
                        </Array>
                    </mxGeometry>
                </mxCell>
                <mxCell id="32" value="" style="endArrow=none;dashed=1;html=1;fontColor=#00FF00;labelBorderColor=none;labelBackgroundColor=#00CC00;fillColor=#e3c800;strokeColor=#B09500;" edge="1" parent="1">
                    <mxGeometry width="50" height="50" relative="1" as="geometry">
                        <mxPoint x="750" y="980" as="sourcePoint"/>
                        <mxPoint x="750" y="980" as="targetPoint"/>
                        <Array as="points">
                            <mxPoint x="50" y="980"/>
                            <mxPoint x="50" y="750"/>
                            <mxPoint x="50" y="480"/>
                            <mxPoint x="750" y="480"/>
                        </Array>
                    </mxGeometry>
                </mxCell>
                <mxCell id="33" value="&lt;font color=&quot;#cccc00&quot; style=&quot;font-size: 13px;&quot;&gt;该区域内的过程表示dom，Vue在内存中生成&lt;br style=&quot;font-size: 13px;&quot;&gt;一个编译好的字符串模板，把这个字符串模板渲染&lt;br style=&quot;font-size: 13px;&quot;&gt;为内存中的Dom；即虚拟DOM。此时，这个Dom&lt;br style=&quot;font-size: 13px;&quot;&gt;还在内存中，并没有被挂载到页面上去&lt;br style=&quot;font-size: 13px;&quot;&gt;&lt;/font&gt;" style="text;html=1;align=center;verticalAlign=middle;resizable=0;points=[];autosize=1;strokeColor=none;fillColor=none;fontColor=#00FF00;strokeWidth=4;spacing=5;spacingTop=3;fontSize=13;" vertex="1" parent="1">
                    <mxGeometry x="750" y="642.5" width="310" height="80" as="geometry"/>
                </mxCell>
                <mxCell id="34" value="" style="endArrow=classic;html=1;labelBackgroundColor=#00CC00;labelBorderColor=none;fontSize=13;fontColor=#CCCC00;fillColor=#e51400;strokeColor=#B20000;" edge="1" parent="1">
                    <mxGeometry width="50" height="50" relative="1" as="geometry">
                        <mxPoint x="370" y="1049.58" as="sourcePoint"/>
                        <mxPoint x="310" y="1049.58" as="targetPoint"/>
                    </mxGeometry>
                </mxCell>
                <mxCell id="36" value="beforeMount&lt;br&gt;触发该钩子时；表示Dom已经加载；&lt;br&gt;但此时虚拟Dom并没有挂载到&lt;br&gt;页面中" style="rounded=0;whiteSpace=wrap;html=1;fontColor=#F0227B;" vertex="1" parent="1">
                    <mxGeometry x="80" y="1000" width="230" height="100" as="geometry"/>
                </mxCell>
                <mxCell id="194" value="Create vm.$el and replace &quot;el&quot; with&lt;br&gt;it" style="whiteSpace=wrap;html=1;rounded=1;" vertex="1" parent="1">
                    <mxGeometry x="260" y="1110" width="220" height="90" as="geometry"/>
                </mxCell>
                <mxCell id="195" value="&lt;font color=&quot;#ff3399&quot;&gt;将内存中编译好的模板，&lt;br&gt;替换到浏览器的页面中去&lt;/font&gt;" style="text;html=1;align=center;verticalAlign=middle;resizable=0;points=[];autosize=1;strokeColor=none;fillColor=none;fontSize=13;fontColor=#CCCC00;" vertex="1" parent="1">
                    <mxGeometry x="500" y="1175" width="160" height="40" as="geometry"/>
                </mxCell>
                <mxCell id="213" style="edgeStyle=none;html=1;labelBackgroundColor=#00CC00;labelBorderColor=none;fontSize=13;fontColor=#FF3399;" edge="1" parent="1" source="197">
                    <mxGeometry relative="1" as="geometry">
                        <mxPoint x="370" y="1590" as="targetPoint"/>
                    </mxGeometry>
                </mxCell>
                <mxCell id="197" value="Mounted" style="ellipse;whiteSpace=wrap;html=1;aspect=fixed;fontSize=13;fontColor=#FF3399;strokeWidth=1;fillColor=default;" vertex="1" parent="1">
                    <mxGeometry x="275" y="1330" width="190" height="190" as="geometry"/>
                </mxCell>
                <mxCell id="198" value="" style="endArrow=classic;html=1;labelBackgroundColor=#00CC00;labelBorderColor=none;fontSize=13;fontColor=#FF3399;exitX=0.5;exitY=1;exitDx=0;exitDy=0;entryX=0.5;entryY=0;entryDx=0;entryDy=0;" edge="1" parent="1" source="194" target="197">
                    <mxGeometry width="50" height="50" relative="1" as="geometry">
                        <mxPoint x="300" y="1250" as="sourcePoint"/>
                        <mxPoint x="350" y="1200" as="targetPoint"/>
                    </mxGeometry>
                </mxCell>
                <mxCell id="199" value="" style="endArrow=classic;html=1;labelBackgroundColor=#00CC00;labelBorderColor=none;fontSize=13;fontColor=#CCCC00;fillColor=#e51400;strokeColor=#B20000;" edge="1" parent="1">
                    <mxGeometry width="50" height="50" relative="1" as="geometry">
                        <mxPoint x="370" y="1290" as="sourcePoint"/>
                        <mxPoint x="200" y="1290" as="targetPoint"/>
                        <Array as="points">
                            <mxPoint x="310" y="1290"/>
                        </Array>
                    </mxGeometry>
                </mxCell>
                <mxCell id="200" value="mounted&lt;br&gt;触发该钩子时；就表示整个Vue实例已经初始化完毕并完成挂载；如果要通过js操作页面上的Dom，最早要在mounted中运行" style="whiteSpace=wrap;html=1;fontSize=13;fontColor=#FF3399;strokeWidth=1;fillColor=default;" vertex="1" parent="1">
                    <mxGeometry x="20" y="1230" width="180" height="170" as="geometry"/>
                </mxCell>
                <mxCell id="204" value="" style="curved=1;endArrow=classic;html=1;labelBackgroundColor=#00CC00;labelBorderColor=none;fontSize=13;fontColor=#FF3399;" edge="1" parent="1">
                    <mxGeometry width="50" height="50" relative="1" as="geometry">
                        <mxPoint x="440" y="1360" as="sourcePoint"/>
                        <mxPoint x="530" y="1310" as="targetPoint"/>
                        <Array as="points">
                            <mxPoint x="440" y="1310"/>
                        </Array>
                    </mxGeometry>
                </mxCell>
                <mxCell id="206" style="edgeStyle=none;html=1;labelBackgroundColor=#00CC00;labelBorderColor=none;fontSize=13;fontColor=#FF3399;" edge="1" parent="1" source="205">
                    <mxGeometry relative="1" as="geometry">
                        <mxPoint x="690" y="1360" as="targetPoint"/>
                        <Array as="points">
                            <mxPoint x="690" y="1310"/>
                        </Array>
                    </mxGeometry>
                </mxCell>
                <mxCell id="205" value="when data &lt;br&gt;changes" style="text;html=1;align=center;verticalAlign=middle;resizable=0;points=[];autosize=1;strokeColor=none;fillColor=none;fontSize=13;fontColor=#FF3399;" vertex="1" parent="1">
                    <mxGeometry x="530" y="1290" width="80" height="40" as="geometry"/>
                </mxCell>
                <mxCell id="208" style="edgeStyle=none;html=1;labelBackgroundColor=#00CC00;labelBorderColor=none;fontSize=13;fontColor=#FF3399;" edge="1" parent="1" target="197">
                    <mxGeometry relative="1" as="geometry">
                        <mxPoint x="470" y="1520" as="targetPoint"/>
                        <mxPoint x="690" y="1425" as="sourcePoint"/>
                        <Array as="points">
                            <mxPoint x="690" y="1470"/>
                            <mxPoint x="690" y="1520"/>
                            <mxPoint x="480" y="1520"/>
                        </Array>
                    </mxGeometry>
                </mxCell>
                <mxCell id="207" value="Virtual DOM&lt;br&gt;re-render&lt;br&gt;and patch" style="whiteSpace=wrap;html=1;fontSize=13;fontColor=#FF3399;strokeWidth=1;fillColor=default;" vertex="1" parent="1">
                    <mxGeometry x="630" y="1360" width="120" height="60" as="geometry"/>
                </mxCell>
                <mxCell id="209" value="" style="endArrow=classic;html=1;labelBackgroundColor=#00CC00;labelBorderColor=none;fontSize=13;fontColor=#CCCC00;fillColor=#e51400;strokeColor=#B20000;" edge="1" parent="1">
                    <mxGeometry width="50" height="50" relative="1" as="geometry">
                        <mxPoint x="690" y="1320" as="sourcePoint"/>
                        <mxPoint x="830" y="1320" as="targetPoint"/>
                        <Array as="points">
                            <mxPoint x="760" y="1320"/>
                        </Array>
                    </mxGeometry>
                </mxCell>
                <mxCell id="210" value="beforeUpdate&lt;br&gt;" style="whiteSpace=wrap;html=1;fontSize=13;fontColor=#FF3399;strokeWidth=1;fillColor=default;" vertex="1" parent="1">
                    <mxGeometry x="827" y="1290" width="120" height="60" as="geometry"/>
                </mxCell>
                <mxCell id="211" value="" style="endArrow=classic;html=1;labelBackgroundColor=#00CC00;labelBorderColor=none;fontSize=13;fontColor=#CCCC00;fillColor=#e51400;strokeColor=#B20000;" edge="1" parent="1">
                    <mxGeometry width="50" height="50" relative="1" as="geometry">
                        <mxPoint x="687" y="1490" as="sourcePoint"/>
                        <mxPoint x="827" y="1490" as="targetPoint"/>
                        <Array as="points">
                            <mxPoint x="757" y="1490"/>
                        </Array>
                    </mxGeometry>
                </mxCell>
                <mxCell id="212" value="updated" style="whiteSpace=wrap;html=1;fontSize=13;fontColor=#FF3399;strokeWidth=1;fillColor=default;" vertex="1" parent="1">
                    <mxGeometry x="827" y="1460" width="120" height="60" as="geometry"/>
                </mxCell>
                <mxCell id="215" style="edgeStyle=none;html=1;labelBackgroundColor=#00CC00;labelBorderColor=none;fontSize=13;fontColor=#FF3399;" edge="1" parent="1" source="214">
                    <mxGeometry relative="1" as="geometry">
                        <mxPoint x="370" y="1740" as="targetPoint"/>
                    </mxGeometry>
                </mxCell>
                <mxCell id="214" value="when vm.$destroy()&lt;br&gt;is called" style="whiteSpace=wrap;html=1;fontSize=13;fontColor=#FF3399;strokeWidth=1;fillColor=default;" vertex="1" parent="1">
                    <mxGeometry x="310" y="1590" width="120" height="70" as="geometry"/>
                </mxCell>
                <mxCell id="216" value="Teardown watchers、child components and event listeners" style="rounded=1;whiteSpace=wrap;html=1;fontSize=13;fontColor=#FF3399;strokeWidth=1;fillColor=default;" vertex="1" parent="1">
                    <mxGeometry x="280" y="1740" width="180" height="100" as="geometry"/>
                </mxCell>
                <mxCell id="217" value="" style="endArrow=classic;html=1;labelBackgroundColor=#00CC00;labelBorderColor=none;fontSize=13;fontColor=#CCCC00;fillColor=#e51400;strokeColor=#B20000;" edge="1" parent="1">
                    <mxGeometry width="50" height="50" relative="1" as="geometry">
                        <mxPoint x="370" y="1710" as="sourcePoint"/>
                        <mxPoint x="250" y="1710" as="targetPoint"/>
                        <Array as="points">
                            <mxPoint x="310" y="1710"/>
                        </Array>
                    </mxGeometry>
                </mxCell>
                <mxCell id="218" value="beforeDestroy&lt;br&gt;当执行beforeDestroy的时候；声明周期已经从运行阶段进入到销毁阶段了，此时，实例中的data、method等还处于可用状态" style="rounded=1;whiteSpace=wrap;html=1;fontSize=13;fontColor=#FF3399;strokeWidth=1;fillColor=default;" vertex="1" parent="1">
                    <mxGeometry x="40" y="1680" width="210" height="120" as="geometry"/>
                </mxCell>
                <mxCell id="219" value="" style="rounded=1;whiteSpace=wrap;html=1;fontSize=13;fontColor=#FF3399;strokeWidth=1;fillColor=none;strokeColor=#00FF00;" vertex="1" parent="1">
                    <mxGeometry x="-40" y="1225" width="1000" height="445" as="geometry"/>
                </mxCell>
                <mxCell id="221" value="&lt;font color=&quot;#009900&quot; style=&quot;font-size: 15px&quot;&gt;这些是组件运行阶段的声明周期函数；&lt;br&gt;beforeUpdate/update这两个事件会根据&lt;br&gt;data数据的改变，有选择性的触发0次到多次&lt;br&gt;&lt;/font&gt;" style="text;html=1;align=center;verticalAlign=middle;resizable=0;points=[];autosize=1;strokeColor=none;fillColor=none;fontSize=13;fontColor=#FF3399;" vertex="1" parent="1">
                    <mxGeometry x="976" y="1210" width="310" height="50" as="geometry"/>
                </mxCell>
                <mxCell id="222" value="" style="endArrow=classic;html=1;labelBackgroundColor=#00CC00;labelBorderColor=none;fontSize=15;fontColor=#009900;exitX=0.79;exitY=0.371;exitDx=0;exitDy=0;exitPerimeter=0;strokeColor=#FF0000;" edge="1" parent="1" source="219">
                    <mxGeometry width="50" height="50" relative="1" as="geometry">
                        <mxPoint x="850" y="1430" as="sourcePoint"/>
                        <mxPoint x="1010" y="1390" as="targetPoint"/>
                    </mxGeometry>
                </mxCell>
                <mxCell id="224" value="这一步执行的是先根据data中最新的数据，通过differ算法后在内存渲染出一份最新的Dom树；&lt;br&gt;当最新的内存DOM树被更新后，会把最新的内存Dom树重新渲染到页面中去；这个时候就完成了数据data(model)-&amp;gt;view层的更新" style="rounded=1;whiteSpace=wrap;html=1;fontSize=15;fontColor=#009900;strokeColor=#00FF00;strokeWidth=1;fillColor=none;" vertex="1" parent="1">
                    <mxGeometry x="1010" y="1320" width="230" height="160" as="geometry"/>
                </mxCell>
                <mxCell id="226" value="updated事件执行的时候；&lt;br&gt;页面和data数据已经保持同步了；&lt;br&gt;都是最新的" style="text;html=1;align=center;verticalAlign=middle;resizable=0;points=[];autosize=1;strokeColor=none;fillColor=none;fontSize=15;fontColor=#009900;" vertex="1" parent="1">
                    <mxGeometry x="970" y="1500" width="240" height="60" as="geometry"/>
                </mxCell>
                <mxCell id="229" value="&lt;font color=&quot;#ffffff&quot;&gt;Destroyed&lt;/font&gt;" style="ellipse;whiteSpace=wrap;html=1;aspect=fixed;fontSize=15;fontColor=#ffffff;strokeColor=#6F0000;strokeWidth=1;fillColor=#a20025;" vertex="1" parent="1">
                    <mxGeometry x="315" y="1940" width="110" height="110" as="geometry"/>
                </mxCell>
                <mxCell id="231" value="destroyed&lt;br&gt;当执行到destroyed&lt;br&gt;的时候；组件已经被完全销毁；此时，组件中所有的数据、方法、指令都不可以再调用了" style="rounded=1;whiteSpace=wrap;html=1;fontSize=15;fontColor=#FF0080;strokeColor=#FFFFFF;strokeWidth=1;fillColor=none;" vertex="1" parent="1">
                    <mxGeometry x="40" y="1927.5" width="205" height="135" as="geometry"/>
                </mxCell>
                <mxCell id="232" style="edgeStyle=none;html=1;labelBackgroundColor=#00CC00;labelBorderColor=none;fontSize=13;fontColor=#FF3399;entryX=0.5;entryY=0;entryDx=0;entryDy=0;" edge="1" parent="1" target="229">
                    <mxGeometry relative="1" as="geometry">
                        <mxPoint x="369.44" y="1920" as="targetPoint"/>
                        <mxPoint x="369.44" y="1840" as="sourcePoint"/>
                    </mxGeometry>
                </mxCell>
                <mxCell id="233" style="edgeStyle=none;html=1;labelBackgroundColor=#00CC00;labelBorderColor=none;fontSize=13;fontColor=#FF3399;entryX=1;entryY=0.5;entryDx=0;entryDy=0;exitX=0;exitY=0.5;exitDx=0;exitDy=0;" edge="1" parent="1" source="229" target="231">
                    <mxGeometry relative="1" as="geometry">
                        <mxPoint x="275" y="2030" as="targetPoint"/>
                        <mxPoint x="310" y="2000" as="sourcePoint"/>
                    </mxGeometry>
                </mxCell>
            </root>
        </mxGraphModel>
    </diagram>
</mxfile>